<?xml version="1.0" encoding="utf-8"?>
<!-- Generator: Adobe Illustrator 26.2.1, SVG Export Plug-In . SVG Version: 6.00 Build 0)  -->
<svg version="1.1" id="Layer_1" xmlns="http://www.w3.org/2000/svg" xmlns:xlink="http://www.w3.org/1999/xlink" x="0px" y="0px"
	 viewBox="0 0 150 81.67" style="enable-background:new 0 0 150 81.67;" xml:space="preserve">
<style type="text/css">
	.st0{fill:#9BC7E2;}
	.st1{fill:#0258A2;}
	.st2{fill:#0D90C9;}
</style>
<g id="AQP_Color_00000087380563984315223310000001816862856083283132_">
	<g>
		<g>
			<path class="st0" d="M149.32,11.63c-2.29,3.56-5.25,6.76-8.61,9.57c-1.65,1.45-3.5,2.68-5.34,3.94
				c-1.93,1.12-3.84,2.32-5.92,3.21c-8.18,3.92-17.55,5.64-26.78,5.51c0,0.06-0.02,0.12-0.09,0.18c-0.32,0.29-1.22,0.37-1.97,0.25
				c-2.13-0.33-4.33-0.6-6.09-1.1l-2.62-0.38l-0.65-0.09l-0.08-0.01l-0.2-0.02l-0.02-0.01l-0.04-0.01l-0.18-0.04l-0.35-0.07
				L89,32.27l-2.76-0.56l-2.69-0.72c1.43,0.41,2.85,0.82,4.31,1.11l2.18,0.5l0.54,0.13l0.27,0.06l0.07,0.02l0.02,0l0.19,0.03l0.03,0
				l0.13,0.02l1.03,0.18c0.82,0.11,1.44,0.45,1.32,0.74c-0.11,0.29-0.89,0.44-1.75,0.32l-0.7-0.1l-0.18-0.03l-0.25-0.03l-0.02,0
				l-0.05-0.01l-0.1-0.02l-0.38-0.08c-0.51-0.1-1.02-0.2-1.54-0.31c-1.03-0.21-2.07-0.4-3.11-0.64c-2.02-0.58-4.12-1.03-6.04-1.77
				c-0.97-0.36-1.92-0.71-2.88-1.06c-0.92-0.4-1.81-0.81-2.68-1.23c-1.76-0.81-3.31-1.78-4.74-2.75c-8.1-3.27-15.68-6.84-23.18-9.24
				c-3.74-1.25-7.45-2.13-11.08-2.71c-1.82-0.24-3.65-0.5-5.22-0.48l-1.21-0.04c-0.4-0.01-0.77-0.04-1.31-0.02l-3,0.06
				c-0.32,0.03-0.68-0.04-0.83-0.17c-0.19-0.12-0.11-0.25,0.17-0.28c2.02-0.15,4.4-0.35,5.97-0.33c0.9,0.01,1.77-0.06,2.75,0.01
				c0.99,0.09,1.98,0.17,2.98,0.26c4.01,0.5,8.19,1.38,12.41,2.72c8.46,2.61,17.06,6.62,26.18,10c1.12,0.4,2.24,0.8,3.35,1.2
				c-3.07-1.52-6.11-3.11-9.17-4.82c-0.41,0.02-1.01-0.09-1.65-0.35c-1.55-0.59-3.07-1.24-4.6-1.86c0.03,0.09,0.04,0.16,0.01,0.22
				c-0.13,0.23-0.79,0.16-1.45-0.17c-3.74-1.79-7.45-3.5-11.17-5.2c-0.09-0.03-0.18-0.07-0.26-0.12c-9.42-3.63-19.2-6.2-28.51-5.85
				c-4.38,0.35-7.92,2.09-9.59,4.87c-1.76,2.76-1.82,6.67-0.42,10.19c0.16,0.17,0.24,0.48,0.21,0.66c-0.03,0.2-0.19,0.23-0.36,0.06
				c-0.09,0.04-0.21,0.15-0.26,0.09c-1.64-2.49-2.65-5.46-2.4-8.49c0.23-3,1.91-6.07,5.1-7.89c2.17-1.26,4.79-1.92,7.47-2.16
				c-2.79-0.13-5.5,0.06-8.03,0.64c-3.27,1.68-5.63,4.65-6.61,7.93C4.49,18.1,4.6,21.58,5.3,24.9l0.1-0.31
				c0.17,0.57,0.21,1.15-0.03,1.25c-0.21,0.14-0.59-0.27-0.81-0.87c-1.3-3.05-1.83-6.53-1.13-10.01c0.67-3.46,2.8-6.89,6.02-9.08
				c3.2-2.23,7.11-3.25,10.87-3.5c0.94-0.03,1.9-0.1,2.83-0.05l0.7,0.02l0.35,0.01l0.18,0.01h0.08l0.04,0l0.16,0.01l1.28,0.12
				c1.73,0.19,3.37,0.28,5.24,0.66c7.29,1.22,14.01,3.58,20.52,6.32c6.47,2.75,12.65,5.81,18.88,8.37
				c4.95,2.04,9.83,3.82,14.77,5.07c1.24,0.28,2.46,0.67,3.71,0.85l1.87,0.34l0.93,0.17l0.23,0.04l0.12,0.02l0.03,0l0.01,0
				c0.16,0.02-0.21-0.02-0.17-0.02h0.01l0.06,0.01l0.51,0.05l4.08,0.47c0.71,0.11,1.28,0.09,1.9,0.13l1.85,0.08
				c1.45,0.1,2.72,0.48,2.71,1.06c-0.02,0.6-1.31,1.15-2.87,1.07c-1.3-0.06-2.54-0.01-3.88-0.15l-4.02-0.38
				c-2.45-0.34-5.11-0.75-7.61-1.39c-5.07-1.2-10.04-2.94-14.96-4.98c-4.34-1.78-8.58-3.79-12.86-5.71
				c3.26,1.67,6.43,3.46,9.58,5.25c5.13,2.17,10.33,4.3,15.79,6.03c1.63,0.51,3.28,0.94,4.91,1.4c1.66,0.33,3.31,0.76,4.96,1.02
				c1.68,0.23,3.35,0.5,5.02,0.67c1.68,0.09,3.36,0.22,5.05,0.26c6.75,0.06,13.65-1.13,20.05-4c6.2-2.78,10.7-6.63,14.21-10.75
				c3.51-4.13,6.06-8.64,8.13-13.42c0.17-0.42,0.52-0.81,0.8-0.87c0.28-0.11,0.38,0.22,0.21,0.63c-3.5,9.69-10.41,19.04-22.36,25.14
				c-6.36,3.2-13.5,4.73-20.61,4.82c-1.78,0.04-3.59-0.11-5.39-0.18c-1.77-0.13-3.46-0.42-5.2-0.64c-1.85-0.27-3.53-0.71-5.3-1.07
				c-1.72-0.49-3.46-0.95-5.16-1.52c-0.92-0.32-1.83-0.63-2.74-0.95c2.86,1.35,5.8,2.59,8.82,3.62l2.27,0.47l1.14,0.24l1.21,0.17
				l4.44,0.6l4.73,0.31c1.57,0.05,3.11-0.01,4.69-0.02c6.24-0.23,12.54-1.39,18.5-3.68c4.61-1.79,8.82-4.23,12.6-7.11
				c3.76-2.91,7.11-6.2,10.17-9.78c0.73-0.94,1.68-1.64,2.15-1.58C150.19,9.74,150.09,10.67,149.32,11.63 M35.34,7.14
				c1.02,0.16,2.07,0.28,3.09,0.5c1.02,0.24,2.03,0.48,3.04,0.72l-2.91-0.9c-0.97-0.3-1.98-0.51-2.97-0.77
				c-1.96-0.55-4-0.85-6.02-1.23c-1.01-0.19-2.02-0.24-3.03-0.37C25.52,5,24.5,4.82,23.47,4.81c-2.06-0.12-4.13-0.01-6.16,0.36
				c3-0.26,6.06-0.1,9.07,0.4l2.28,0.29c0.76,0.1,1.49,0.27,2.24,0.4c0.75,0.13,1.49,0.26,2.24,0.39
				C33.88,6.78,34.61,6.98,35.34,7.14"/>
			<path class="st0" d="M26.53,0.31c1.14,0.21,2.29,0.42,3.43,0.63c1.27,0.28,2.54,0.55,3.81,0.78c1.3,0.21,2.42,0.53,3.63,0.73
				c1.19,0.22,2.38,0.38,3.51,0.58c0.22,0.03,0.37-0.01,0.29-0.12c-0.08-0.11-0.31-0.23-0.56-0.27c-1.08-0.2-2.25-0.32-3.39-0.54
				c-1.16-0.2-2.26-0.5-3.53-0.7c-1.23-0.23-2.47-0.49-3.7-0.77c-1.1-0.21-2.21-0.41-3.3-0.62C26.45-0.02,26.23,0,26.2,0.09
				C26.14,0.17,26.31,0.27,26.53,0.31"/>
			<path class="st0" d="M44.22,3.47c7.47,1.59,14.53,4.47,21.18,7.4c6.66,2.97,12.95,5.9,19.33,8.05c1.3,0.42,2.59,0.77,3.88,1.16
				c1.29,0.33,2.58,0.59,3.86,0.9l0.24,0.06l0.06,0.02l0.03,0.01c0.07,0.01-0.59-0.07-0.3-0.04l0,0h0.02l0.14,0.02l0.57,0.08
				l1.12,0.16l2.25,0.32l1.12,0.16l0.93,0.06l1.86,0.12c0.63,0.02,1.22,0.12,1.89,0.09l1.99-0.04l2-0.05l1.98-0.23l1.98-0.23
				c0.66-0.11,1.31-0.26,1.96-0.4l1.96-0.43c0.65-0.16,1.28-0.39,1.92-0.59c3.38-1,6.52-2.58,9.02-4.5c0.21-0.16,0.28-0.35,0.14-0.4
				c-0.17-0.06-0.44,0.04-0.68,0.21c-5.41,3.61-12.21,5.68-19.15,5.93c-1.72,0.01-3.54,0.13-5.1-0.05l-2.42-0.15
				c-0.93-0.11-1.97-0.27-2.95-0.4c-3.45-0.42-6.75-1.34-10.1-2.29c-6.36-1.98-12.72-4.88-19.47-7.88
				c-6.74-2.96-13.92-5.93-21.51-7.47c-0.2-0.04-0.34,0.02-0.3,0.12C43.75,3.3,44.02,3.43,44.22,3.47"/>
			<path class="st0" d="M105.57,22.21l-2.89,0.23c-0.99,0.11-1.85,0.02-2.77,0.05l-1.38,0c-0.46,0-0.89,0.01-1.47-0.05l-3.26-0.31
				l-0.81-0.08L92.58,22l-0.21-0.02c0.55,0.06,0.15,0.01,0.27,0.03h-0.01l-0.01,0l-0.02,0l-0.05-0.01l-0.09-0.02l-1.43-0.27
				c-0.95-0.2-1.9-0.34-2.85-0.61c-1.89-0.55-3.77-1.1-5.62-1.92c-4-1.67-7.89-3.36-12.39-4.98c-6.04-2.13-11.52-4.13-17.61-7.07
				c-0.2-0.1-0.43-0.14-0.52-0.08c-0.05,0.07,0.06,0.2,0.27,0.31c6.53,3.3,12.76,5.68,19.11,8.13c5.88,2.29,11.32,4.54,16.93,5.94
				c1.4,0.32,2.81,0.59,4.22,0.88l4.55,0.52c0.43,0.06,0.77,0.06,1.1,0.06l1.03,0.01l2.06,0.01c1.38,0,2.87-0.22,4.3-0.36
				c0.25-0.01,0.39-0.11,0.4-0.19C106,22.26,105.79,22.19,105.57,22.21"/>
			<path class="st0" d="M67.23,27.1c-4.59-2.21-9.16-4.58-13.68-6.5c-4.5-1.91-8.96-3.43-13.07-3.92c-0.22-0.01-0.29,0.07-0.19,0.2
				c0.1,0.12,0.36,0.26,0.57,0.28c4.03,0.54,8.33,2.1,12.69,4.06c4.37,1.94,8.79,4.29,13.3,6.38c0.42,0.21,0.86,0.26,0.98,0.13
				C67.92,27.58,67.66,27.33,67.23,27.1"/>
			<path class="st0" d="M23.8,1.84l0.48,0.02l0.24,0.02l0.06,0l0.19,0.02l0.11,0.01l0.87,0.11l1.75,0.22l1.74,0.22
				c0.6,0.09,1.24,0.23,1.85,0.35c1.24,0.26,2.51,0.47,3.7,0.78l3.54,0.94c4.66,1.37,9.16,3,13.56,4.58c4,1.94,7.9,3.93,11.86,5.66
				c0.56,0.27,1.09,0.32,1.19,0.12c0.11-0.2-0.25-0.57-0.81-0.84l-5.86-2.94c0.09-0.03,0.15-0.09,0.17-0.17
				c7.08,3.17,13.83,6.44,20.65,8.79c0.37,0.14,0.7,0.13,0.75,0c0.06-0.14-0.2-0.36-0.57-0.5c-6.98-2.53-13.98-5.88-21.38-9.06
				c-0.24-0.18-0.54-0.35-0.87-0.49C50.76,7,44.28,4.62,37.22,2.98c-2.45-0.63-5.15-1.09-7.72-1.6c-1.19-0.17-2.36-0.33-3.54-0.5
				l-0.88-0.13l-0.11-0.02l-0.3-0.03l-0.25-0.02l-0.51-0.04c-0.68-0.04-1.35-0.13-2.05-0.13c-2.76-0.1-5.66,0.1-8.56,0.92
				C10.4,2.23,7.5,3.71,5.18,5.89c-1.83,1.72-3.16,3.87-3.97,6.09c-0.81,2.23-1.14,4.52-1.19,6.77c-0.14,3.77,0.66,7.62,2.52,10.45
				c1.29,1.94,2.84,3.52,4.48,4.79c1.6,1.24,3.52,2.36,5.12,2.96c0.21,0.09,0.28,0.03,0.2-0.12c-0.05-0.12-0.27-0.31-0.44-0.38
				c-3.5-1.47-6.83-4.37-9.33-7.65c-1.69-3.53-2.5-7.48-2.17-11.5c0.31-4,2-8.18,5.16-11.39c2.75-2.22,6.01-3.39,9.1-3.84
				C17.78,1.59,20.78,1.67,23.8,1.84"/>
			<path class="st1" d="M11.69,59.4H6.68l-1.04,3.2H2.4l5.22-14.85h3.18l5.19,14.85h-3.24L11.69,59.4z M7.45,57.07h3.49l-1.71-5.23
				H9.17L7.45,57.07z"/>
			<rect x="19.86" y="47.76" class="st1" width="3.1" height="14.85"/>
			<path class="st1" d="M31.31,56.67v5.94h-3.1V47.76h5.35c1.76,0,3.14,0.39,4.14,1.16c0.99,0.77,1.49,1.85,1.49,3.23
				c0,0.76-0.21,1.42-0.63,1.97c-0.42,0.55-1.04,1-1.84,1.34c0.91,0.26,1.57,0.69,1.97,1.3c0.4,0.61,0.6,1.35,0.6,2.24v1.09
				c0,0.42,0.06,0.85,0.18,1.3c0.12,0.45,0.32,0.79,0.6,1v0.21h-3.2c-0.28-0.22-0.47-0.58-0.55-1.08c-0.08-0.5-0.12-0.99-0.12-1.46
				v-1.05c0-0.74-0.21-1.32-0.63-1.73c-0.42-0.41-1.02-0.62-1.79-0.62H31.31z M31.31,54.38h2.2c0.87,0,1.52-0.18,1.94-0.53
				c0.42-0.35,0.64-0.88,0.64-1.57c0-0.68-0.21-1.22-0.64-1.62c-0.43-0.4-1.06-0.6-1.89-0.6h-2.25V54.38z"/>
			<path class="st1" d="M61.09,56.52c0,0.75-0.11,1.45-0.32,2.11c-0.22,0.66-0.52,1.25-0.92,1.79l2.3,2.21l-2.03,1.59l-2.26-2.14
				c-0.47,0.24-0.98,0.43-1.52,0.56c-0.54,0.13-1.11,0.19-1.72,0.19c-1.91,0-3.46-0.6-4.65-1.78c-1.19-1.19-1.78-2.7-1.78-4.52
				v-2.67c0-1.82,0.59-3.32,1.78-4.51c1.19-1.19,2.73-1.79,4.64-1.79c1.92,0,3.48,0.6,4.68,1.79c1.2,1.19,1.81,2.7,1.81,4.51V56.52z
				 M58,53.82c0-1.16-0.3-2.1-0.9-2.85c-0.6-0.74-1.43-1.11-2.5-1.11c-1.05,0-1.86,0.37-2.45,1.11c-0.58,0.74-0.88,1.69-0.88,2.85
				v2.69c0,1.18,0.29,2.13,0.88,2.88c0.59,0.74,1.41,1.11,2.46,1.11c1.06,0,1.89-0.37,2.49-1.11c0.59-0.74,0.89-1.7,0.89-2.88V53.82
				z"/>
			<path class="st1" d="M78.31,47.76v9.72c0,1.67-0.58,2.98-1.73,3.93c-1.15,0.95-2.65,1.42-4.49,1.42c-1.83,0-3.32-0.47-4.47-1.42
				c-1.14-0.94-1.72-2.25-1.72-3.93v-9.72h3.11v9.72c0,0.99,0.28,1.75,0.83,2.27c0.55,0.52,1.3,0.79,2.24,0.79
				c0.96,0,1.71-0.26,2.27-0.79c0.56-0.52,0.84-1.28,0.84-2.27v-9.72H78.31z"/>
			<path class="st1" d="M91.01,59.4h-5.01l-1.04,3.2h-3.24l5.22-14.85h3.18l5.19,14.85h-3.24L91.01,59.4z M86.76,57.07h3.49
				l-1.71-5.23h-0.06L86.76,57.07z"/>
			<polygon class="st1" points="102.06,60.32 108.99,60.32 108.99,62.61 98.96,62.61 98.96,47.76 102.06,47.76 			"/>
			<rect x="113.44" y="47.76" class="st1" width="3.1" height="14.85"/>
			<polygon class="st1" points="132.26,50.05 127.84,50.05 127.84,62.61 124.74,62.61 124.74,50.05 120.38,50.05 120.38,47.76 
				132.26,47.76 			"/>
			<polygon class="st1" points="141.76,54.6 141.83,54.6 145.2,47.76 148.6,47.76 143.3,57.38 143.3,62.61 140.2,62.61 140.2,57.23 
				134.98,47.76 138.38,47.76 			"/>
			<rect x="1.67" y="68.45" class="st2" width="145.24" height="1.15"/>
			<path class="st1" d="M3.29,78.9v2.67H2.26v-6.66h2.92c0.82,0,1.45,0.18,1.9,0.55c0.45,0.37,0.68,0.85,0.68,1.45
				c0,0.6-0.23,1.09-0.68,1.45C6.63,78.72,6,78.9,5.18,78.9H3.29z M3.29,78.2h1.89c0.52,0,0.9-0.12,1.16-0.36
				c0.25-0.24,0.38-0.55,0.38-0.92c0-0.37-0.13-0.68-0.38-0.92c-0.26-0.25-0.64-0.37-1.16-0.37H3.29V78.2z"/>
			<path class="st1" d="M19.84,79.86h-2.88l-0.68,1.72h-1.06l2.76-6.66h0.89l2.7,6.66h-1.06L19.84,79.86z M17.27,79.11h2.28
				l-1.11-2.86h-0.03L17.27,79.11z"/>
			<path class="st1" d="M31.25,78.69v2.89h-1.03v-6.66h2.61c0.84,0,1.48,0.16,1.92,0.48c0.44,0.32,0.66,0.79,0.66,1.41
				c0,0.34-0.1,0.64-0.31,0.89c-0.2,0.25-0.5,0.45-0.9,0.6c0.42,0.12,0.72,0.31,0.91,0.58c0.18,0.27,0.28,0.6,0.28,0.99v0.63
				c0,0.21,0.03,0.39,0.08,0.56c0.05,0.17,0.14,0.3,0.27,0.4v0.11h-1.07c-0.14-0.1-0.22-0.26-0.26-0.46s-0.06-0.41-0.06-0.62v-0.61
				c0-0.36-0.12-0.65-0.36-0.87c-0.24-0.22-0.56-0.33-0.97-0.33H31.25z M31.25,77.98h1.48c0.58,0,1-0.1,1.26-0.29
				c0.26-0.19,0.39-0.49,0.39-0.89c0-0.38-0.13-0.67-0.38-0.87c-0.25-0.21-0.64-0.31-1.17-0.31h-1.58V77.98z"/>
			<polygon class="st1" points="49.51,75.62 46.99,75.62 46.99,81.58 45.96,81.58 45.96,75.62 43.47,75.62 43.47,74.91 49.51,74.91 
							"/>
			<polygon class="st1" points="63.9,81.58 62.87,81.58 59.19,76.49 59.16,76.5 59.16,81.58 58.12,81.58 58.12,74.91 59.16,74.91 
				62.84,80 62.87,79.99 62.87,74.91 63.9,74.91 			"/>
			<polygon class="st1" points="77.39,78.49 74.25,78.49 74.25,80.87 77.93,80.87 77.93,81.58 73.22,81.58 73.22,74.91 77.87,74.91 
				77.87,75.62 74.25,75.62 74.25,77.78 77.39,77.78 			"/>
			<path class="st1" d="M87.71,78.69v2.89h-1.03v-6.66h2.61c0.84,0,1.48,0.16,1.92,0.48c0.44,0.32,0.66,0.79,0.66,1.41
				c0,0.34-0.1,0.64-0.31,0.89c-0.2,0.25-0.5,0.45-0.9,0.6c0.42,0.12,0.72,0.31,0.91,0.58c0.18,0.27,0.28,0.6,0.28,0.99v0.63
				c0,0.21,0.03,0.39,0.08,0.56c0.05,0.17,0.14,0.3,0.27,0.4v0.11h-1.07c-0.14-0.1-0.22-0.26-0.26-0.46
				c-0.04-0.2-0.06-0.41-0.06-0.62v-0.61c0-0.36-0.12-0.65-0.36-0.87c-0.24-0.22-0.56-0.33-0.97-0.33H87.71z M87.71,77.98h1.48
				c0.58,0,1-0.1,1.26-0.29c0.26-0.19,0.39-0.49,0.39-0.89c0-0.38-0.13-0.67-0.38-0.87c-0.25-0.21-0.64-0.31-1.17-0.31h-1.58V77.98z
				"/>
			<path class="st1" d="M105.11,79.9c0-0.3-0.12-0.56-0.37-0.76c-0.25-0.2-0.69-0.38-1.31-0.52c-0.78-0.17-1.38-0.42-1.82-0.74
				c-0.43-0.33-0.65-0.74-0.65-1.23c0-0.52,0.23-0.96,0.7-1.3c0.47-0.35,1.08-0.52,1.83-0.52c0.8,0,1.45,0.2,1.92,0.6
				c0.48,0.4,0.71,0.86,0.7,1.39l-0.02,0.03h-0.99c0-0.38-0.15-0.69-0.45-0.94c-0.3-0.25-0.69-0.37-1.16-0.37
				c-0.48,0-0.85,0.1-1.11,0.31c-0.26,0.2-0.39,0.47-0.39,0.8c0,0.29,0.14,0.53,0.42,0.73c0.28,0.19,0.74,0.36,1.37,0.51
				c0.77,0.17,1.36,0.43,1.76,0.77c0.4,0.34,0.6,0.76,0.6,1.25c0,0.54-0.24,0.97-0.73,1.29s-1.12,0.49-1.9,0.49
				c-0.74,0-1.39-0.18-1.95-0.54c-0.57-0.36-0.84-0.84-0.82-1.45l0.01-0.03h0.99c0,0.42,0.18,0.74,0.55,0.97
				c0.36,0.23,0.77,0.34,1.23,0.34c0.49,0,0.88-0.1,1.16-0.29C104.97,80.49,105.11,80.23,105.11,79.9"/>
			<polygon class="st1" points="120.92,81.58 119.89,81.58 119.89,78.63 116.17,78.63 116.17,81.58 115.14,81.58 115.14,74.91 
				116.17,74.91 116.17,77.92 119.89,77.92 119.89,74.91 120.92,74.91 			"/>
			<rect x="130.34" y="74.91" class="st1" width="1.04" height="6.66"/>
			<path class="st1" d="M141.83,78.9v2.67h-1.03v-6.66h2.92c0.82,0,1.45,0.18,1.9,0.55c0.45,0.37,0.68,0.85,0.68,1.45
				c0,0.6-0.23,1.09-0.68,1.45c-0.45,0.36-1.09,0.55-1.9,0.55H141.83z M141.83,78.2h1.89c0.52,0,0.91-0.12,1.16-0.36
				c0.26-0.24,0.38-0.55,0.38-0.92c0-0.37-0.13-0.68-0.38-0.92c-0.26-0.25-0.64-0.37-1.16-0.37h-1.89V78.2z"/>
		</g>
	</g>
</g>
</svg>
